#!OML:ASF X:\für Bonn\!DataBase\2005_08_10_Bjorn_Final\c3d\bjorn.ASF
:FULLY-SPECIFIED
:DEGREES
216
root 15.6392 17.9529 1.58209 172.962 -105.174 -137.301
lowerback 74.1725 -3.48886 12.2552
upperback 15.387 1.57225 -1.5823
thorax -2.71187 0.828515 -7.1804
lowerneck 3.0933 -7.63801 10.3615
upperneck -17.2233 -9.28398 2.85436
head -6.14034 -5.55507 -0.14065
rclavicle -9.54166e-015 7.95139e-015
rhumerus 64.5722 -5.11271 -10.6853
rradius 23.4572
rwrist 19.6106
rhand -29.838 31.4596
rfingers 7.12502
rthumb -3.16097 1.50327
lclavicle -9.54166e-015 7.95139e-015
lhumerus -16.3933 -32.4506 84.411
lradius 57.2295
lwrist 1.86074
lhand -34.9865 -14.7257
lfingers 7.12502
lthumb -8.13175 15.0978
rfemur -67.498 -7.75598 0.365663
rtibia 57.4573
rfoot -19.2193 -3.40612
rtoes -14.2939
lfemur -69.0936 -0.315358 -30.8704
ltibia 56.6932
lfoot -12.5878 3.42743
ltoes -21.5205
217
root 15.643 17.9432 1.57029 172.712 -105.247 -137.035
lowerback 74.3446 -3.45635 12.1855
upperback 15.3207 1.58692 -1.65036
thorax -2.77782 0.840841 -7.23534
lowerneck 3.0691 -7.6742 10.2562
upperneck -17.1599 -9.31176 3.04648
head -6.10257 -5.57176 -0.0660844
rclavicle 0 3.65764e-014
rhumerus 64.4987 -4.98029 -10.1724
rradius 23.2781
rwrist 19.8331
rhand -29.3651 31.3529
rfingers 7.12502
rthumb -2.70436 1.39027
lclavicle 0 3.65764e-014
lhumerus -16.4439 -32.3492 84.4532
lradius 57.2749
lwrist 1.91926
lhand -35.0393 -14.7583
lfingers 7.12502
lthumb -8.18266 15.0632
rfemur -67.5995 -7.73167 0.242893
rtibia 57.6302
rfoot -19.2891 -3.5028
rtoes -14.392
lfemur -69.1646 -0.348798 -30.9472
ltibia 56.7788
lfoot -12.6116 3.41689
ltoes -21.6112
218
root 15.6467 17.9343 1.55874 172.516 -105.335 -136.835
lowerback 74.5414 -3.43236 12.108
upperback 15.2419 1.59559 -1.69362
thorax -2.85674 0.844946 -7.25524
lowerneck 3.07184 -7.70748 10.1109
upperneck -17.1053 -9.3363 3.23746
head -6.06965 -5.58482 0.0150515
rclavicle 1.90833e-014 -1.59028e-015
rhumerus 64.4493 -4.79239 -9.52967
rradius 23.0712
rwrist 19.743
rhand -28.9741 31.1383
rfingers 7.12502
rthumb -2.32673 1.17124
lclavicle 1.90833e-014 -1.59028e-015
lhumerus -16.5047 -32.1818 84.5509
lradius 57.2955
lwrist 1.93034
lhand -35.0786 -14.7503
lfingers 7.12502
lthumb -8.22061 15.0698
rfemur -67.6651 -7.6887 0.110182
rtibia 57.7955
rfoot -19.3807 -3.60231
rtoes -14.2683
lfemur -69.2166 -0.364122 -31.034
ltibia 56.8463
lfoot -12.6143 3.40365
ltoes -21.6958
219
root 15.6513 17.9242 1.54587 172.337 -105.424 -136.636
lowerback 74.7102 -3.40547 12.0459
upperback 15.1787 1.61125 -1.74055
thorax -2.91783 0.855385 -7.28894
lowerneck 3.05295 -7.74883 10.0476
upperneck -17.0692 -9.37825 3.36652
head -6.047 -5.60828 0.0657334
rclavicle 5.08889e-014 0
rhumerus 64.3264 -4.59942 -8.79342
rradius 22.8734
rwrist 19.4334
rhand -28.7375 30.8691
rfingers 7.12502
rthumb -2.09819 0.899681
lclavicle 5.08889e-014 0
lhumerus -16.5595 -32.082 84.6243
lradius 57.3428
lwrist 1.96057
lhand -35.1472 -14.711
lfingers 7.12502
lthumb -8.28684 15.1065
rfemur -67.7632 -7.66514 -0.00923268
rtibia 57.9626
rfoot -19.4426 -3.67037
rtoes -14.2049
lfemur -69.2838 -0.393947 -31.1055
ltibia 56.9043
lfoot -12.6298 3.37119
ltoes -21.6983
220
root 15.6551 17.9157 1.53351 172.12 -105.501 -136.42
lowerback 74.9265 -3.36723 11.9509
upperback 15.0873 1.62602 -1.77676
thorax -3.01014 0.858911 -7.29626
lowerneck 3.1169 -7.79475 9.94417
upperneck -17.0578 -9.41644 3.50695
head -6.04328 -5.62902 0.129971
rclavicle 3.18055e-014 -6.36111e-015
rhumerus 64.2359 -4.38027 -8.13793
rradius 22.6764
rwrist 19.1433
rhand -28.5705 30.4698
rfingers 7.12502
rthumb -1.9369 0.498837
lclavicle 3.18055e-014 -6.36111e-015
lhumerus -16.6584 -31.882 84.7574
lradius 57.3455
lwrist 1.90612
lhand -35.248 -14.7179
lfingers 7.12502
lthumb -8.38413 15.0957
rfemur -67.8297 -7.61085 -0.145116
rtibia 58.1199
rfoot -19.5203 -3.77567
rtoes -14.1803
lfemur -69.311 -0.428178 -31.1671
ltibia 56.946
lfoot -12.6511 3.36258
ltoes -21.7121
221
root 15.6591 17.9066 1.52155 171.909 -105.562 -136.216
lowerback 75.1374 -3.33171 11.8738
upperback 15.0061 1.64427 -1.82578
thorax -3.08868 0.867688 -7.32705
lowerneck 3.16597 -7.8376 9.88059
upperneck -17.0554 -9.44723 3.65297
head -6.04172 -5.64943 0.189122
rclavicle -1.11319e-013 6.52014e-014
rhumerus 64.0372 -4.06682 -7.1403
rradius 22.5347
rwrist 18.256
rhand -28.5103 29.9158
rfingers 7.12502
rthumb -1.87876 -0.0557041
lclavicle -1.11319e-013 6.52014e-014
lhumerus -16.7383 -31.7242 84.8731
lradius 57.3556
lwrist 1.89955
lhand -35.3673 -14.7178
lfingers 7.12502
lthumb -8.49927 15.0912
rfemur -67.9 -7.57536 -0.247626
rtibia 58.2791
rfoot -19.5939 -3.83918
rtoes -14.145
lfemur -69.3305 -0.439179 -31.2363
ltibia 56.9809
lfoot -12.664 3.36572
ltoes -21.8248
222
root 15.6639 17.8977 1.50886 171.716 -105.626 -136.012
lowerback 75.2757 -3.26585 11.7754
upperback 14.9801 1.6654 -1.83442
thorax -3.11265 0.875608 -7.3054
lowerneck 3.1813 -7.87464 9.78314
upperneck -17.0598 -9.48432 3.7703
head -6.03588 -5.67007 0.243463
rclavicle 1.59028e-014 6.83819e-014
rhumerus 63.8469 -3.7528 -6.03251
rradius 22.395
rwrist 16.96
rhand -28.616 29.6935
rfingers 7.12502
rthumb -1.98085 -0.27709
lclavicle 1.59028e-014 6.83819e-014
lhumerus -16.75 -31.5038 85.0052
lradius 57.328
lwrist 1.85762
lhand -35.5064 -14.8136
lfingers 7.12502
lthumb -8.6335 14.9899
rfemur -67.9903 -7.52682 -0.364848
rtibia 58.4326
rfoot -19.6483 -3.9225
rtoes -14.1018
lfemur -69.3733 -0.453171 -31.3066
ltibia 57.01
lfoot -12.6641 3.38705
ltoes -22.0188
223
root 15.6684 17.889 1.49576 171.533 -105.712 -135.843
lowerback 75.4388 -3.24684 11.7295
upperback 14.9508 1.67699 -1.856
thorax -3.13243 0.884227 -7.31407
lowerneck 3.16297 -7.91687 9.66061
upperneck -17.043 -9.53179 3.91014
head -6.01517 -5.69488 0.30694
rclavicle 0 1.11319e-014
rhumerus 63.5889 -3.45502 -4.96327
rradius 22.2913
rwrist 15.6248
rhand -28.9618 29.8621
rfingers 7.12502
rthumb -2.31484 -0.105074
lclavicle 0 1.11319e-014
lhumerus -16.7377 -31.3381 85.1316
lradius 57.2922
lwrist 1.77671
lhand -35.599 -14.8257
lfingers 7.12502
lthumb -8.72281 14.974
rfemur -68.0487 -7.49707 -0.471143
rtibia 58.5858
rfoot -19.7184 -3.97975
rtoes -14.0194
lfemur -69.3801 -0.474487 -31.3747
ltibia 57.0291
lfoot -12.6754 3.38714
ltoes -22.3189
224
root 15.6734 17.8805 1.48211 171.399 -105.781 -135.7
lowerback 75.573 -3.20232 11.6649
upperback 14.9201 1.69859 -1.87546
thorax -3.15817 0.895276 -7.31819
lowerneck 3.20819 -7.96258 9.5647
upperneck -17.0505 -9.57158 4.05157
head -6.01426 -5.71837 0.370105
rclavicle 1.52667e-013 -6.52014e-014
rhumerus 63.3361 -3.1504 -3.97116
rradius 22.2337
rwrist 14.3851
rhand -29.5746 30.2819
rfingers 7.12502
rthumb -2.90664 0.321925
lclavicle 1.52667e-013 -6.52014e-014
lhumerus -16.7593 -31.1667 85.2609
lradius 57.2872
lwrist 1.72087
lhand -35.6383 -14.8451
lfingers 7.12502
lthumb -8.76077 14.953
rfemur -68.1342 -7.46805 -0.553692
rtibia 58.7313
rfoot -19.7737 -4.06416
rtoes -14.1076
lfemur -69.4154 -0.496637 -31.4215
ltibia 57.0451
lfoot -12.6841 3.3939
ltoes -22.4527
225
root 15.6786 17.873 1.46957 171.207 -105.862 -135.513
lowerback 75.7011 -3.19945 11.6331
upperback 14.8919 1.69556 -1.93036
thorax -3.18049 0.903054 -7.36671
lowerneck 3.29985 -8.01689 9.52647
upperneck -17.0597 -9.6112 4.18647
head -6.02562 -5.74418 0.425032
rclavicle 3.81667e-014 -2.8625e-014
rhumerus 63.045 -2.87438 -3.16074
rradius 22.1989
rwrist 13.3727
rhand -30.2926 30.7786
rfingers 7.12502
rthumb -3.59999 0.82925
lclavicle 3.81667e-014 -2.8625e-014
lhumerus -16.7911 -31.0505 85.3627
lradius 57.2563
lwrist 1.68875
lhand -35.6635 -14.8824
lfingers 7.12502
lthumb -8.78514 14.9148
rfemur -68.194 -7.4504 -0.662903
rtibia 58.8686
rfoot -19.8381 -4.09843
rtoes -13.9097
lfemur -69.425 -0.526528 -31.4896
ltibia 57.0531
lfoot -12.684 3.39586
ltoes -22.5039
226
root 15.6837 17.8663 1.45638 171.122 -105.923 -135.423
lowerback 75.8348 -3.19518 11.5994
upperback 14.8304 1.69706 -1.99751
thorax -3.24083 0.910383 -7.43098
lowerneck 3.5381 -8.07777 9.50795
upperneck -17.1413 -9.63476 4.32667
head -6.08575 -5.76668 0.486917
rclavicle -5.40694e-014 2.22639e-014
rhumerus 62.7692 -2.59768 -2.51809
rradius 22.1801
rwrist 12.6219
rhand -31.0614 31.2677
rfingers 7.12502
rthumb -4.34245 1.33219
lclavicle -5.40694e-014 2.22639e-014
lhumerus -16.8927 -30.9258 85.4567
lradius 57.2469
lwrist 1.59791
lhand -35.6477 -14.8979
lfingers 7.12502
lthumb -8.76986 14.8999
rfemur -68.2699 -7.42643 -0.719522
rtibia 58.997
rfoot -19.8878 -4.16415
rtoes -13.9008
lfemur -69.4512 -0.54153 -31.5199
ltibia 57.0607
lfoot -12.6947 3.39015
ltoes -22.5376
